<svg baseProfile="tiny" xmlns="http://www.w3.org/2000/svg" viewBox="0 0 555.157 166.952"><g><path fill-rule="evenodd" fill="#00141C" d="M248.657 42.1c-8.82 0-17.586 1.28-26.302 3.844v6.92c8.716-2.562 17.483-3.844 26.302-3.844 15.534 0 23.302 6.178 23.302 18.533v9.92c-8.563-1.025-16.613-1.538-24.15-1.538-21.327 0-31.99 8.024-31.99 24.07 0 15.227 9.356 22.84 28.07 22.84 9.484 0 19.277-2.667 29.377-8l1.846 8h4.922V67.168c0-16.714-10.46-25.07-31.378-25.07zm23.302 65.98c-8.87 5.23-18.228 7.844-28.07 7.844-13.33 0-19.996-5.383-19.996-16.15 0-11.277 7.972-16.917 23.917-16.917 7.537 0 15.587.513 24.15 1.538v23.685zm54.15-65.98c-11.434 0-21.74 1.1-30.917 3.306v106.66h8.075V119c8.613 2.564 16.15 3.845 22.61 3.845 26.045 0 39.067-14.124 39.067-42.372C364.945 54.89 352 42.1 326.11 42.1zm-.31 73.054c-6.87 0-14.38-1.384-22.532-4.153V51.174c7.947-1.23 15.51-1.846 22.687-1.846 20.764 0 31.146 10.33 31.146 30.99 0 23.226-10.433 34.837-31.3 34.837zM407.176 42.1c-11.434 0-21.738 1.1-30.916 3.306v106.66h8.074V119c8.613 2.564 16.15 3.845 22.61 3.845 26.045 0 39.067-14.124 39.067-42.372.002-25.583-12.944-38.374-38.835-38.374zm-.308 73.054c-6.87 0-14.382-1.384-22.533-4.153V51.174c7.947-1.23 15.51-1.846 22.687-1.846 20.765 0 31.147 10.33 31.147 30.99 0 23.226-10.433 34.837-31.3 34.837zm51.997 7.69h8.075V42.1h-8.076v80.744zm58.61-81.514c-25.122 0-37.683 13.714-37.683 41.142.103 27.377 12.664 41.065 37.684 41.065 25.122 0 37.683-13.688 37.683-41.065 0-27.428-12.56-41.142-37.683-41.142zm0 75.362c-19.74 0-29.608-11.51-29.608-34.528 0-22.61 9.87-33.914 29.608-33.914s29.608 11.305 29.608 33.914c0 23.02-9.87 34.528-29.608 34.528z"/><ellipse fill-rule="evenodd" fill="#00141C" cx="462.852" cy="27.237" rx="5.503" ry="5.472"/></g><g><path fill-rule="evenodd" fill="#197D55" d="M94.46 0C26.9 87.295 0 166.952 0 166.952c106.13-52.567 188.92 0 188.92 0C168.754 99.334 94.46 0 94.46 0zm-51 131.022s18.626-49.067 51.007-90.05c0 0 46.596 66.905 50.903 90.05 0 0-43.584-28.417-101.91 0z"/><path fill-rule="evenodd" fill="#197D55" d="M93.303 58.73c-22.944 29.512-32.08 56.44-32.08 56.44 36.044-17.77 64.16 0 64.16 0-6.848-22.86-32.08-56.44-32.08-56.44z"/></g></svg>