<?xml version="1.0" encoding="utf-8"?>
<!-- Generator: Adobe Illustrator 21.0.1, SVG Export Plug-In . SVG Version: 6.00 Build 0)  -->
<svg version="1.1" id="Layer_1" xmlns="http://www.w3.org/2000/svg" xmlns:xlink="http://www.w3.org/1999/xlink" x="0px" y="0px"
	 viewBox="0 0 190 190" style="enable-background:new 0 0 190 190;" xml:space="preserve">
<style type="text/css">
	.st0{fill:#0F131C;}
</style>
<g>
	<g>
		<path class="st0" d="M39.9,101.7c-0.9,0-1.7,0.5-2,1.7l-2.6,14.5c0.7,0.2,1.3,0.2,1.6,0.2c3.4,0,5.4-7.8,5.4-12
			C42.4,103.5,41.7,101.7,39.9,101.7z M46.7,45.7c0-0.2-0.1-0.4-0.4-0.4c-0.1,0-0.1,0-0.2,0c-0.4,0.1-0.8,0.6-1,1.5
			C46.1,46.8,46.7,46.2,46.7,45.7z M105.3,100.6c0-0.8-0.5-1.3-1.4-1.3c-0.3,0-0.6,0-0.9,0.1c-1.5,0.5-3,2.2-3.8,5.5
			C103,104.6,105.3,102.4,105.3,100.6z M77.7,114.2c-1.8,0-4,2.3-5.1,5.4l0,0.7c3.6-0.5,6.5-2.4,6.5-4.6
			C79.1,114.8,78.5,114.2,77.7,114.2z M56.2,113.5c0,2.5,0.6,4.3,2.2,4.3c1.1,0,1.8-0.7,2.3-1.6l2.6-14.4c-0.5-0.1-0.9-0.2-1.3-0.2
			C58,101.5,56.2,109.2,56.2,113.5z M162.1,75.7c0-0.8-0.5-1.3-1.4-1.3c-0.3,0-0.6,0-0.9,0.1c-1.5,0.5-3,2.2-3.8,5.5
			C159.7,79.7,162.1,77.5,162.1,75.7z M95,0C42.5,0,0,42.5,0,95c0,52.5,42.5,95,95,95c52.5,0,95-42.5,95-95C190,42.5,147.5,0,95,0z
			 M46.8,43.1c1.7,0,2.8,0.7,2.8,2.3c0,2.7-2.8,3.3-4.6,3.4c0,0.5,0.4,0.8,1.1,0.8c0.7,0,1.4-0.3,2.1-0.7l0.5,2.1
			c-0.2,0.2-1.6,1-3.6,1c-2.5,0-3.5-1.5-3.5-3.4C41.6,45.9,43.5,43.1,46.8,43.1z M37.7,40.5l-0.5,3c0.4-0.2,1-0.4,1.7-0.4
			c1.5,0,2.2,0.7,2.2,2c0,0.3,0,0.7-0.1,1.2l-1,5.5h-3.3l0.9-5.3c0-0.1,0.1-0.3,0.1-0.4c0-0.3-0.1-0.5-0.3-0.5
			c-0.4,0-0.6,0.3-0.7,0.8l-1,5.3h-3.3l2-11.3H37.7z M26.6,48.5l1.4-8.1h3.3l-0.5,2.9h2l-0.4,2.5h-2l-0.5,2.6c0,0.1,0,0.3,0,0.5
			c0,0.5,0.4,0.6,0.8,0.6c0.2,0,0.5-0.1,0.8-0.2l0.4,2.1c-0.6,0.3-1.7,0.6-2.7,0.6c-2.2,0-2.7-1-2.7-2.2
			C26.5,49.4,26.5,49,26.6,48.5z M145.3,134.2c-0.2,1.3-1.2,6.8-1.6,8.5c-2.4,11-8.4,16.7-18,16.7c-7,0-10.6-3.2-10.6-7.7
			c0-4,1.5-7.2,7.8-11.2c-4.4-1-6.1-3.5-5.8-7.5c0.1-0.7,0.1-1.3,0.2-2.1l1.5-8.4c-2.4-1.4-3.6-1.4-5-1.4c-2.2,0-3.8,0.9-4.2,3.2
			l-3.4,18.9H93.7l3.4-19.1c-4-0.5-6.7-2.1-8.5-4.4c-1.3,1.3-2.9,2.4-4.4,3.2l4.8,15.1H75.3l-3.1-12.5h-0.4l-0.4,0.1l-2.2,12.4H56.7
			l2.3-13c-0.8,0.5-1.6,0.9-2.5,1.2c-0.9,0.3-1.9,0.4-3,0.4c-3.4,0-5.8-1.2-7.3-3.1c-3.1,2-7,3.1-11.6,3.1c-4.9,0-10.3-1.2-12.9-2.4
			l7.3-40.8h12.4l-2,11.1c1.2-0.6,3.1-1.2,5.5-1.2c3.2,0,5.7,1.1,7.4,3.3c3.2-2.1,7.1-3.3,11.8-3.3c2.6,0,7.4,0.6,12.4,2.6v0h0.1
			l-3,16.2L74,112c2.6-4.1,6.3-6.4,11.2-6.4c0.6,0,1.2,0.2,1.8,0.3c2.1-8.1,8.6-15.1,18.8-15.1c6.4,0,10.4,2.8,10.4,8.5
			c0,10-10.4,12.3-17.5,12.9c0.2,1.8,1.7,3,4.3,3c2.5,0,5.9-1.1,9.3-3.3l0,0c1.5-1,3.1-1.3,4.2-1.3c1.6,0,3.6,0.3,4.9,1.1h11.6
			l-3.3,18.8c-0.1,0.5-0.2,1-0.2,1.5c-0.1,1.1,0.2,1.7,1.4,1.7c1.2,0,2.1-1,2.5-3l3.4-19h12.5L145.3,134.2z M156.2,99.2
			c-9.4,0-13.2-5.5-13.2-12.7c0-0.3,0.1-0.6,0.1-0.9c-0.7-0.2-1.3-0.3-2-0.3c-2.2,0-3.8,0.9-4.2,3.2l-3.4,18.8H121l3.8-21.4h-5.4
			v-2.5h-0.4c-2.2,2.2-4.9,3.3-7.9,3.3c-6.1,0-9.1-2.7-9-8.1c0-1,0.1-2.1,0.3-3.2l2-11.4h-9.8l-1.8,9.7c-0.1,0.5-0.1,1.3-0.1,1.7
			c0.1,1.9,1.3,2.3,2.8,2.3c0.9,0,1.9-0.3,3-0.9l1.4,7.7c-2.2,1.2-6.3,2.3-10.1,2.3c-8.1,0-10-3.9-10-8.2c0-1.6,0.2-3.2,0.6-4.9
			l0.1-0.4c-1.9,1.4-4,2.3-6.5,2.3c-6.1,0-9.1-2.7-9-8.1c0-1,0.1-2.1,0.3-3.2l2-11.4h-4l-6.2,34.7H44.8l8.1-45.3
			c1.1-6.1,3.4-12.8,13.7-12.8c3.9,0,8.2,1.2,10.8,2.9l-4,7.7c-2-1.2-4.2-1.7-5.2-1.7c-1.2,0-2.3,0.4-2.8,2.5l-0.4,2.5h16.4L78,63.2
			c-0.1,0.5-0.1,1-0.2,1.4c-0.1,1.3,0.1,2,1.3,2c1.3,0,2.2-1.3,2.5-2.9l3.6-20.1h12.4l0,0.1h0.7l-2,10.8h10.5v0h11.8l-3.5,19.6
			c-0.1,0.5-0.1,1-0.2,1.4c-0.1,1.3,0.1,2,1.3,2c1.3,0,2.2-1.3,2.5-2.9l3.6-20.1h12.4L131,76h4.7l0.2,4.2c2.5-4.1,5.8-5.2,7.9-5.2
			c0.7,0,1.5,0.1,2.2,0.2c3.2-5.4,8.8-9.4,16.4-9.4c6.4,0,10.3,2.8,10.3,8.5c0,10-10.4,12.2-17.4,12.9c0.2,1.8,1.7,3,4.3,3
			c2.5,0,5.4-1,8-2.5l2,7.9C168.8,96.2,163.9,99.2,156.2,99.2z M126.3,148.9c0,1.3,0.6,1.8,1.7,1.8c1.7,0,2.4-1.1,2.9-3.8l1.1-6.1
			c-0.7,0.5-1.7,1.2-2.6,2.1C127.7,144.5,126.3,146.6,126.3,148.9z"/>
	</g>
</g>
</svg>
