<?xml version="1.0" encoding="utf-8"?>
<!-- Generator: Adobe Illustrator 21.0.1, SVG Export Plug-In . SVG Version: 6.00 Build 0)  -->
<svg version="1.1" id="Layer_1" xmlns="http://www.w3.org/2000/svg" xmlns:xlink="http://www.w3.org/1999/xlink" x="0px" y="0px"
	 viewBox="0 0 24 24" style="enable-background:new 0 0 24 24;" xml:space="preserve">
<style type="text/css">
	.st0{fill:#30311A;}
</style>
<path class="st0" d="M21.6,0H2.4C1.1,0,0,1.1,0,2.4v19.2C0,22.9,1.1,24,2.4,24h19.2c1.3,0,2.4-1.1,2.4-2.4V2.4C24,1.1,22.9,0,21.6,0
	L21.6,0z M12,7.2c2.6,0,4.8,2.2,4.8,4.8c0,2.6-2.2,4.8-4.8,4.8S7.2,14.6,7.2,12C7.2,9.4,9.4,7.2,12,7.2L12,7.2z M3,21.6
	c-0.4,0-0.6-0.2-0.6-0.6V10.8h2.5c-0.1,0.4-0.1,0.8-0.1,1.2c0,4,3.2,7.2,7.2,7.2s7.2-3.2,7.2-7.2c0-0.4,0-0.8-0.1-1.2h2.5V21
	c0,0.4-0.2,0.6-0.6,0.6H3z M21.6,5.4C21.6,5.8,21.4,6,21,6h-2.4C18.2,6,18,5.8,18,5.4V3c0-0.4,0.2-0.6,0.6-0.6H21
	c0.4,0,0.6,0.2,0.6,0.6V5.4z M21.6,5.4"/>
</svg>
