<?xml version="1.0" encoding="utf-8"?>
<!-- Generator: Adobe Illustrator 21.0.1, SVG Export Plug-In . SVG Version: 6.00 Build 0)  -->
<svg version="1.1" id="Layer_1" xmlns="http://www.w3.org/2000/svg" xmlns:xlink="http://www.w3.org/1999/xlink" x="0px" y="0px"
	 viewBox="0 0 24 24" style="enable-background:new 0 0 24 24;" xml:space="preserve">
<style type="text/css">
	.st0{fill-rule:evenodd;clip-rule:evenodd;fill:#30311A;}
</style>
<g>
	<g>
		<path class="st0" d="M22.9,6.8l-9.2-6.3c-1-0.7-2.3-0.7-3.3,0L1.1,6.8C0.4,7.2,0,8.1,0,9v12.4C0,22.9,1.1,24,2.5,24h19
			c1.4,0,2.5-1.1,2.5-2.6V9C24,8.1,23.6,7.2,22.9,6.8z M8.8,16.6l-6,5.2c-0.1,0.1-0.2,0.1-0.3,0.1c-0.1,0-0.3-0.1-0.4-0.2
			C1.9,21.5,2,21.2,2.2,21l6-5.2c0.2-0.2,0.5-0.1,0.7,0.1C9.1,16.1,9,16.4,8.8,16.6z M21.9,21.7L21.9,21.7c-0.1,0.1-0.2,0.2-0.4,0.2
			c-0.1,0-0.2,0-0.3-0.1l-6-5.2c-0.2-0.2-0.2-0.5-0.1-0.7c0.2-0.2,0.5-0.2,0.7-0.1l6,5.2C22,21.2,22.1,21.5,21.9,21.7z M21.8,9.3
			l-8.2,5.8c-0.5,0.3-1.1,0.5-1.6,0.5s-1.1-0.2-1.6-0.5L2.2,9.3C2,9.1,1.9,8.8,2.1,8.6c0.2-0.2,0.5-0.3,0.7-0.1l8.2,5.8
			c0.6,0.4,1.4,0.4,2,0l8.2-5.8c0.2-0.2,0.5-0.1,0.7,0.1C22.1,8.8,22,9.1,21.8,9.3z"/>
	</g>
</g>
</svg>
