<?xml version="1.0" encoding="utf-8"?>
<!-- Generator: Adobe Illustrator 21.0.1, SVG Export Plug-In . SVG Version: 6.00 Build 0)  -->
<svg version="1.1" id="Layer_1" xmlns="http://www.w3.org/2000/svg" xmlns:xlink="http://www.w3.org/1999/xlink" x="0px" y="0px"
	 viewBox="0 0 24 24" style="enable-background:new 0 0 24 24;" xml:space="preserve">
<style type="text/css">
	.st0{fill-rule:evenodd;clip-rule:evenodd;fill:#30311A;}
</style>
<path class="st0" d="M22.1,15.8c-1.5,0-2.9-0.3-4.3-0.6c-0.6-0.3-1.4,0-1.9,0.4l-2.7,2c-3.2-1.6-5.2-3.7-6.8-6.8l2-2.7
	C9,7.6,9.1,6.8,9,6.2C8.5,4.8,8.2,3.4,8.2,1.9c0-1-0.9-1.9-1.9-1.9H1.9C0.9,0,0,0.9,0,1.9C0,14,10,24,22.1,24c1,0,1.9-0.9,1.9-1.9
	v-4.4C24,16.7,23.1,15.8,22.1,15.8L22.1,15.8z"/>
</svg>
