<?xml version="1.0" encoding="UTF-8"?>
<svg width="42px" height="40px" viewBox="0 0 42 40" version="1.1" xmlns="http://www.w3.org/2000/svg" xmlns:xlink="http://www.w3.org/1999/xlink">
    <!-- Generator: Sketch 42 (36781) - http://www.bohemiancoding.com/sketch -->
    <title>Shape</title>
    <desc>Created with Sketch.</desc>
    <defs></defs>
    <g id="FUBAS-PROJEKTY" stroke="none" stroke-width="1" fill="none" fill-rule="evenodd">
        <g id="PROJEKTY" transform="translate(-571.000000, -657.000000)" fill="#D5DE22">
            <g id="CONTENT" transform="translate(275.000000, 212.000000)">
                <g id="aktuální-projekty">
                    <g id="hover" transform="translate(231.000000, 190.000000)">
                        <g id="odmena" transform="translate(54.000000, 251.000000)">
                            <path d="M22.9,8.97259631 L20.6,8.97259631 C16.8,8.97259631 13.4,11.2725963 11.8,14.3725963 C13,13.4725963 14.6,12.7725963 16.2,12.6725963 L22.9,8.97259631 Z M32.3,12.4725963 L42.6,6.67259631 C41.9,5.67259631 40.7,4.77259631 39.5,4.27259631 C37.9,3.77259631 36.2,3.97259631 34.8,4.77259631 L20.1,12.4725963 L32.3,12.4725963 Z M51.9,14.5725963 C50.7,12.1725963 48.6,10.1725963 45.9,9.47259631 L47.7,12.5725963 C49.3,12.8725963 50.9,13.5725963 51.9,14.5725963 Z M45.6,12.6725963 L45.6,12.4725963 L43.5,8.27259631 L36,12.6725963 L45.6,12.6725963 Z M46.9,14.2725963 L17.1,14.2725963 C13.8,14.2725963 11,17.0725963 11,20.3725963 L11,37.8725963 C11,41.1725963 13.8,43.9725963 17.1,43.9725963 L46.8,43.9725963 C50.1,43.9725963 52.9,41.1725963 52.9,37.8725963 L52.9,35.2725963 L45,35.2725963 C41.7,35.2725963 38.9,32.4725963 38.9,29.1725963 C38.9,25.8725963 41.7,23.0725963 45,23.0725963 L53,23.0725963 L53,20.4725963 C53,17.0725963 50.2,14.2725963 46.9,14.2725963 Z M40.7,29.0725963 C40.7,31.4725963 42.6,33.4725963 45.1,33.4725963 L53,33.4725963 L53,24.7725963 L45.1,24.7725963 C42.7,24.7725963 40.7,26.8725963 40.7,29.0725963 Z M47.7,29.0725963 C47.7,30.4725963 46.5,31.6725963 45.1,31.6725963 C43.7,31.6725963 42.5,30.4725963 42.5,29.0725963 C42.5,27.6725963 43.7,26.4725963 45.1,26.4725963 C46.5,26.4725963 47.7,27.6725963 47.7,29.0725963 Z M44.3,29.0725963 C44.3,29.5725963 44.6,29.9725963 45.2,29.9725963 C45.7,29.9725963 46.1,29.6725963 46.1,29.0725963 C46.1,28.5725963 45.8,28.1725963 45.2,28.1725963 C44.6,28.2725963 44.3,28.7725963 44.3,29.0725963 Z" id="Shape"></path>
                        </g>
                    </g>
                </g>
            </g>
        </g>
    </g>
</svg>