<?xml version="1.0" encoding="UTF-8"?>
<svg width="190px" height="190px" viewBox="0 0 190 190" version="1.1" xmlns="http://www.w3.org/2000/svg" xmlns:xlink="http://www.w3.org/1999/xlink">
    <!-- Generator: Sketch 42 (36781) - http://www.bohemiancoding.com/sketch -->
    <title>Shape</title>
    <desc>Created with Sketch.</desc>
    <defs></defs>
    <g id="FUBAS-PROJEKTY" stroke="none" stroke-width="1" fill="none" fill-rule="evenodd">
        <g id="PROJEKTY" transform="translate(-314.000000, -1689.000000)" fill-rule="nonzero" fill="#D5DE22">
            <g id="BOTTOM" transform="translate(-3.000000, 1626.000000)">
                <g id="logo" transform="translate(317.000000, 63.565611)">
                    <g id="Layer_1">
                        <path d="M39.9,101.009729 C39,101.009729 38.2,101.506335 37.9,102.69819 L35.3,117.099774 C36,117.298416 36.6,117.298416 36.9,117.298416 C40.3,117.298416 42.3,109.551357 42.3,105.379864 C42.4,102.797511 41.7,101.009729 39.9,101.009729 Z M46.7,45.389819 C46.7,45.1911765 46.6,44.9925339 46.3,44.9925339 L46.1,44.9925339 C45.7,45.0918552 45.3,45.5884615 45.1,46.4823529 C46.1,46.4823529 46.7,45.8864253 46.7,45.389819 Z M105.3,99.9171946 C105.3,99.1226244 104.8,98.6260181 103.9,98.6260181 C103.6,98.6260181 103.3,98.6260181 103,98.7253394 C101.5,99.2219457 100,100.910407 99.2,104.188009 C103,103.890045 105.3,101.704977 105.3,99.9171946 Z M77.7,113.424887 C75.9,113.424887 73.7,115.709276 72.6,118.788235 L72.6,119.483484 C76.2,118.986878 79.1,117.099774 79.1,114.914706 C79.1,114.020814 78.5,113.424887 77.7,113.424887 Z M56.2,112.729638 C56.2,115.21267 56.8,117.000452 58.4,117.000452 C59.5,117.000452 60.2,116.305204 60.7,115.411312 L63.3,101.10905 C62.8,101.009729 62.4,100.910407 62,100.910407 C58,100.811086 56.2,108.458824 56.2,112.729638 Z M162.1,75.1861991 C162.1,74.391629 161.6,73.8950226 160.7,73.8950226 C160.4,73.8950226 160.1,73.8950226 159.8,73.9943439 C158.3,74.4909502 156.8,76.1794118 156,79.4570136 C159.7,79.1590498 162.1,76.9739819 162.1,75.1861991 Z M95,0 C42.5,0 0,42.2115385 0,94.3552036 C0,146.498869 42.5,188.710407 95,188.710407 C147.5,188.710407 190,146.498869 190,94.3552036 C190,42.2115385 147.5,0 95,0 Z M46.8,42.8074661 C48.5,42.8074661 49.6,43.5027149 49.6,45.0918552 C49.6,47.7735294 46.8,48.369457 45,48.4687783 C45,48.9653846 45.4,49.2633484 46.1,49.2633484 C46.8,49.2633484 47.5,48.9653846 48.2,48.5680995 L48.7,50.6538462 C48.5,50.8524887 47.1,51.6470588 45.1,51.6470588 C42.6,51.6470588 41.6,50.1572398 41.6,48.2701357 C41.6,45.5884615 43.5,42.8074661 46.8,42.8074661 Z M37.7,40.2251131 L37.2,43.2047511 C37.6,43.0061086 38.2,42.8074661 38.9,42.8074661 C40.4,42.8074661 41.1,43.5027149 41.1,44.7938914 C41.1,45.0918552 41.1,45.4891403 41,45.9857466 L40,51.4484163 L36.7,51.4484163 L37.6,46.1843891 C37.6,46.0850679 37.7,45.8864253 37.7,45.7871041 C37.7,45.4891403 37.6,45.2904977 37.4,45.2904977 C37,45.2904977 36.8,45.5884615 36.7,46.0850679 L35.7,51.349095 L32.4,51.349095 L34.4,40.1257919 L37.7,40.1257919 L37.7,40.2251131 Z M26.6,48.1708145 L28,40.1257919 L31.3,40.1257919 L30.8,43.0061086 L32.8,43.0061086 L32.4,45.4891403 L30.4,45.4891403 L29.9,48.0714932 L29.9,48.5680995 C29.9,49.0647059 30.3,49.1640271 30.7,49.1640271 C30.9,49.1640271 31.2,49.0647059 31.5,48.9653846 L31.9,51.0511312 C31.3,51.349095 30.2,51.6470588 29.2,51.6470588 C27,51.6470588 26.5,50.6538462 26.5,49.461991 C26.5,49.0647059 26.5,48.6674208 26.6,48.1708145 Z M145.3,133.28914 C145.1,134.580317 144.1,140.042986 143.7,141.731448 C141.3,152.656787 135.3,158.3181 125.7,158.3181 C118.7,158.3181 115.1,155.139819 115.1,150.670362 C115.1,146.697511 116.6,143.519231 122.9,139.54638 C118.5,138.553167 116.8,136.070136 117.1,132.097285 C117.2,131.402036 117.2,130.806109 117.3,130.011538 L118.8,121.668552 C116.4,120.278054 115.2,120.278054 113.8,120.278054 C111.6,120.278054 110,121.171946 109.6,123.456335 L106.2,142.228054 L93.7,142.228054 L97.1,123.257692 C93.1,122.761086 90.4,121.171946 88.6,118.887557 C87.3,120.178733 85.7,121.271267 84.2,122.065837 L89,137.063348 L75.3,137.063348 L72.2,124.64819 L71.8,124.64819 L71.4,124.747511 L69.2,137.063348 L56.7,137.063348 L59,124.151584 C58.2,124.64819 57.4,125.045475 56.5,125.343439 C55.6,125.641403 54.6,125.740724 53.5,125.740724 C50.1,125.740724 47.7,124.548869 46.2,122.661765 C43.1,124.64819 39.2,125.740724 34.6,125.740724 C29.7,125.740724 24.3,124.548869 21.7,123.357014 L29,82.8339367 L41.4,82.8339367 L39.4,93.8585973 C40.6,93.2626697 42.5,92.6667421 44.9,92.6667421 C48.1,92.6667421 50.6,93.759276 52.3,95.9443439 C55.5,93.8585973 59.4,92.6667421 64.1,92.6667421 C66.7,92.6667421 71.5,93.2626697 76.5,95.249095 L76.5,95.249095 L76.6,95.249095 L73.6,111.33914 L74,111.239819 C76.6,107.167647 80.3,104.883258 85.2,104.883258 C85.8,104.883258 86.4,105.0819 87,105.181222 C89.1,97.1361991 95.6,90.1837104 105.8,90.1837104 C112.2,90.1837104 116.2,92.9647059 116.2,98.6260181 C116.2,108.558145 105.8,110.842534 98.7,111.438462 C98.9,113.226244 100.4,114.4181 103,114.4181 C105.5,114.4181 108.9,113.325566 112.3,111.140498 L112.3,111.140498 C113.8,110.147285 115.4,109.849321 116.5,109.849321 C118.1,109.849321 120.1,110.147285 121.4,110.941855 L133,110.941855 L129.7,129.614253 C129.6,130.11086 129.5,130.607466 129.5,131.104072 C129.4,132.196606 129.7,132.792534 130.9,132.792534 C132.1,132.792534 133,131.799321 133.4,129.812896 L136.8,110.941855 L149.3,110.941855 L145.3,133.28914 Z M156.2,98.5266968 C146.8,98.5266968 143,93.0640271 143,85.9128959 C143,85.6149321 143.1,85.3169683 143.1,85.0190045 C142.4,84.820362 141.8,84.7210407 141.1,84.7210407 C138.9,84.7210407 137.3,85.6149321 136.9,87.8993213 L133.5,106.571719 L121,106.571719 L124.8,85.3169683 L119.4,85.3169683 L119.4,82.8339367 L119,82.8339367 C116.8,85.0190045 114.1,86.1115385 111.1,86.1115385 C105,86.1115385 102,83.4298643 102.1,78.0665158 C102.1,77.0733032 102.2,75.9807692 102.4,74.8882353 L104.4,63.5656109 L94.6,63.5656109 L92.8,73.1997738 C92.7,73.6963801 92.7,74.4909502 92.7,74.8882353 C92.8,76.7753394 94,77.1726244 95.5,77.1726244 C96.4,77.1726244 97.4,76.8746606 98.5,76.278733 L99.9,83.9264706 C97.7,85.1183258 93.6,86.2108597 89.8,86.2108597 C81.7,86.2108597 79.8,82.3373303 79.8,78.0665158 C79.8,76.4773756 80,74.8882353 80.4,73.1997738 L80.5,72.8024887 C78.6,74.1929864 76.5,75.0868778 74,75.0868778 C67.9,75.0868778 64.9,72.4052036 65,67.0418552 C65,66.0486425 65.1,64.9561086 65.3,63.8635747 L67.3,52.5409502 L63.3,52.5409502 L57.1,87.0054299 L44.8,87.0054299 L52.9,42.0128959 C54,35.9542986 56.3,29.2997738 66.6,29.2997738 C70.5,29.2997738 74.8,30.491629 77.4,32.1800905 L73.4,39.8278281 C71.4,38.6359729 69.2,38.1393665 68.2,38.1393665 C67,38.1393665 65.9,38.5366516 65.4,40.6223982 L65,43.1054299 L81.4,43.1054299 L78,62.7710407 C77.9,63.2676471 77.9,63.7642534 77.8,64.1615385 C77.7,65.4527149 77.9,66.1479638 79.1,66.1479638 C80.4,66.1479638 81.3,64.8567873 81.6,63.2676471 L85.2,43.3040724 L97.6,43.3040724 L97.6,43.4033937 L98.3,43.4033937 L96.3,54.1300905 L106.8,54.1300905 L106.8,54.1300905 L118.6,54.1300905 L115.1,73.5970588 C115,74.0936652 115,74.5902715 114.9,74.9875566 C114.8,76.278733 115,76.9739819 116.2,76.9739819 C117.5,76.9739819 118.4,75.6828054 118.7,74.0936652 L122.3,54.1300905 L134.7,54.1300905 L131,75.4841629 L135.7,75.4841629 L135.9,79.6556561 C138.4,75.5834842 141.7,74.4909502 143.8,74.4909502 C144.5,74.4909502 145.3,74.5902715 146,74.6895928 C149.2,69.3262443 154.8,65.3533937 162.4,65.3533937 C168.8,65.3533937 172.7,68.1343891 172.7,73.7957014 C172.7,83.7278281 162.3,85.9128959 155.3,86.6081448 C155.5,88.3959276 157,89.5877828 159.6,89.5877828 C162.1,89.5877828 165,88.5945701 167.6,87.1047511 L169.6,94.9511312 C168.8,95.5470588 163.9,98.5266968 156.2,98.5266968 Z M126.3,147.889367 C126.3,149.180543 126.9,149.677149 128,149.677149 C129.7,149.677149 130.4,148.584615 130.9,145.902941 L132,139.844344 C131.3,140.34095 130.3,141.036199 129.4,141.93009 C127.7,143.519231 126.3,145.604977 126.3,147.889367 Z" id="Shape"></path>
                    </g>
                </g>
            </g>
        </g>
    </g>
</svg>